<?xml version="1.0" encoding="utf-8"?>
<!-- Generator: Adobe Illustrator 12.0.1, SVG Export Plug-In . SVG Version: 6.00 Build 51448)  -->
<!DOCTYPE svg PUBLIC "-//W3C//DTD SVG 1.1//EN" "http://www.w3.org/Graphics/SVG/1.1/DTD/svg11.dtd" [
	<!ENTITY ns_svg "http://www.w3.org/2000/svg">
	<!ENTITY ns_xlink "http://www.w3.org/1999/xlink">
]>
<svg  version="1.1" xmlns="&ns_svg;" xmlns:xlink="&ns_xlink;" width="337.917" height="161.417" viewBox="0 0 337.917 161.417"
	 overflow="visible" enable-background="new 0 0 337.917 161.417" xml:space="preserve">
<g id="Layer_2">
	<rect x="0.25" y="0.25" stroke="#000000" stroke-width="0.5" width="13.845" height="13.845"/>
	<rect x="0.25" y="17.817" fill="#FFFFFF" stroke="#000000" stroke-width="0.5" width="13.845" height="13.846"/>
	<rect x="17.371" y="17.817" fill="#808284" stroke="#000000" stroke-width="0.5" width="13.845" height="13.846"/>
	<rect x="34.044" y="17.817" fill="#BCBEC0" stroke="#000000" stroke-width="0.5" width="13.845" height="13.846"/>
	<rect x="51.165" y="17.668" stroke="#000000" stroke-width="0.5" width="13.845" height="13.845"/>
	<rect x="67.988" y="17.817" fill="#FFFFFF" stroke="#000000" stroke-width="0.5" width="13.846" height="13.846"/>
	<rect x="84.959" y="17.817" fill="#BCBEC0" stroke="#000000" stroke-width="0.5" width="13.846" height="13.846"/>
	<rect x="17.222" y="0.25" fill="#BCBEC0" stroke="#000000" stroke-width="0.5" width="13.845" height="13.845"/>
	<rect x="34.193" y="0.25" fill="#808284" stroke="#000000" stroke-width="0.5" width="13.846" height="13.845"/>
	<rect x="51.166" y="0.25" stroke="#000000" stroke-width="0.5" width="13.845" height="13.845"/>
	<rect x="68.137" y="0.25" fill="#808284" stroke="#000000" stroke-width="0.5" width="13.845" height="13.845"/>
	<rect x="84.812" y="0.25" fill="#FFFFFF" stroke="#000000" stroke-width="0.5" width="13.845" height="13.845"/>
	<rect x="0.25" y="35.534" fill="#BCBEC0" stroke="#000000" stroke-width="0.5" width="13.845" height="13.846"/>
	<rect x="0.25" y="53.101" stroke="#000000" stroke-width="0.5" width="13.845" height="13.845"/>
	<rect x="17.371" y="53.101" fill="#BCBEC0" stroke="#000000" stroke-width="0.5" width="13.845" height="13.845"/>
	<rect x="34.044" y="53.101" fill="#BCBEC0" stroke="#000000" stroke-width="0.5" width="13.845" height="13.845"/>
	<rect x="51.165" y="52.952" fill="#808284" stroke="#000000" stroke-width="0.5" width="13.845" height="13.845"/>
	<rect x="67.988" y="53.101" fill="#FFFFFF" stroke="#000000" stroke-width="0.5" width="13.846" height="13.845"/>
	<rect x="84.959" y="53.101" fill="#BCBEC0" stroke="#000000" stroke-width="0.5" width="13.846" height="13.845"/>
	<rect x="17.222" y="35.534" stroke="#000000" stroke-width="0.5" width="13.845" height="13.846"/>
	<rect x="34.193" y="35.534" stroke="#000000" stroke-width="0.5" width="13.846" height="13.846"/>
	<rect x="51.166" y="35.534" fill="#BCBEC0" stroke="#000000" stroke-width="0.5" width="13.845" height="13.846"/>
	<rect x="68.137" y="35.534" fill="#808284" stroke="#000000" stroke-width="0.5" width="13.845" height="13.846"/>
	<rect x="84.812" y="35.534" stroke="#000000" stroke-width="0.5" width="13.845" height="13.846"/>
	<rect x="0.25" y="70.817" fill="#808284" stroke="#000000" stroke-width="0.5" width="13.845" height="13.845"/>
	<rect x="0.25" y="88.384" fill="#BCBEC0" stroke="#000000" stroke-width="0.5" width="13.845" height="13.846"/>
	<rect x="17.371" y="88.384" fill="#FFFFFF" stroke="#000000" stroke-width="0.5" width="13.845" height="13.846"/>
	<rect x="34.044" y="88.384" fill="#808284" stroke="#000000" stroke-width="0.5" width="13.845" height="13.846"/>
	<rect x="51.165" y="88.236" fill="#BCBEC0" stroke="#000000" stroke-width="0.5" width="13.845" height="13.845"/>
	<rect x="67.988" y="88.384" stroke="#000000" stroke-width="0.5" width="13.846" height="13.846"/>
	<rect x="84.959" y="88.384" fill="#BCBEC0" stroke="#000000" stroke-width="0.5" width="13.846" height="13.846"/>
	<rect x="17.222" y="70.817" stroke="#000000" stroke-width="0.5" width="13.845" height="13.845"/>
	<rect x="34.193" y="70.817" fill="#BCBEC0" stroke="#000000" stroke-width="0.5" width="13.846" height="13.845"/>
	<rect x="51.166" y="70.817" stroke="#000000" stroke-width="0.5" width="13.845" height="13.845"/>
	<rect x="68.137" y="70.817" fill="#BCBEC0" stroke="#000000" stroke-width="0.5" width="13.845" height="13.845"/>
	<rect x="84.812" y="70.817" stroke="#000000" stroke-width="0.5" width="13.845" height="13.845"/>
	<rect x="0.25" y="106.547" fill="#FFFFFF" stroke="#000000" stroke-width="0.5" width="13.845" height="13.845"/>
	<rect x="17.371" y="106.547" fill="#808284" stroke="#000000" stroke-width="0.5" width="13.845" height="13.845"/>
	<rect x="34.044" y="106.547" fill="#BCBEC0" stroke="#000000" stroke-width="0.5" width="13.845" height="13.845"/>
	<rect x="51.165" y="106.398" stroke="#000000" stroke-width="0.5" width="13.845" height="13.846"/>
	<rect x="67.988" y="106.547" fill="#FFFFFF" stroke="#000000" stroke-width="0.5" width="13.846" height="13.845"/>
	<rect x="84.959" y="106.547" fill="#BCBEC0" stroke="#000000" stroke-width="0.5" width="13.846" height="13.845"/>
	<rect x="131.726" y="35.235" stroke="#000000" stroke-width="0.5" width="13.846" height="13.845"/>
	<rect x="148.847" y="35.235" fill="#BCBEC0" stroke="#000000" stroke-width="0.5" width="13.846" height="13.845"/>
	<rect x="165.521" y="35.235" fill="#BCBEC0" stroke="#000000" stroke-width="0.5" width="13.846" height="13.845"/>
	<rect x="182.641" y="35.087" fill="#808284" stroke="#000000" stroke-width="0.5" width="13.846" height="13.845"/>
	<rect x="199.465" y="35.235" fill="#FFFFFF" stroke="#000000" stroke-width="0.5" width="13.845" height="13.845"/>
	<rect x="216.436" y="35.235" fill="#BCBEC0" stroke="#000000" stroke-width="0.5" width="13.845" height="13.845"/>
	<rect x="131.726" y="52.952" fill="#808284" stroke="#000000" stroke-width="0.5" width="13.846" height="13.846"/>
	<rect x="131.726" y="70.519" fill="#BCBEC0" stroke="#000000" stroke-width="0.5" width="13.846" height="13.845"/>
	<rect x="148.847" y="70.519" fill="#FFFFFF" stroke="#000000" stroke-width="0.5" width="13.846" height="13.845"/>
	<rect x="165.521" y="70.519" fill="#808284" stroke="#000000" stroke-width="0.5" width="13.846" height="13.845"/>
	<rect x="182.641" y="70.371" fill="#BCBEC0" stroke="#000000" stroke-width="0.5" width="13.846" height="13.845"/>
	<rect x="199.465" y="70.519" stroke="#000000" stroke-width="0.5" width="13.845" height="13.845"/>
	<rect x="216.436" y="70.519" fill="#BCBEC0" stroke="#000000" stroke-width="0.5" width="13.845" height="13.845"/>
	<rect x="148.698" y="52.952" stroke="#000000" stroke-width="0.5" width="13.846" height="13.846"/>
	<rect x="165.669" y="52.952" fill="#BCBEC0" stroke="#000000" stroke-width="0.5" width="13.846" height="13.846"/>
	<rect x="182.641" y="52.952" stroke="#000000" stroke-width="0.5" width="13.846" height="13.846"/>
	<rect x="199.613" y="52.952" fill="#BCBEC0" stroke="#000000" stroke-width="0.5" width="13.846" height="13.846"/>
	<rect x="216.289" y="52.952" stroke="#000000" stroke-width="0.5" width="13.846" height="13.846"/>
	<rect x="131.726" y="88.682" fill="#FFFFFF" stroke="#000000" stroke-width="0.5" width="13.846" height="13.846"/>
	<rect x="148.847" y="88.682" fill="#808284" stroke="#000000" stroke-width="0.5" width="13.846" height="13.846"/>
	<rect x="262.95" y="35.235" stroke="#000000" stroke-width="0.5" width="13.845" height="13.845"/>
	<rect x="280.07" y="35.235" fill="#BCBEC0" stroke="#000000" stroke-width="0.5" width="13.846" height="13.845"/>
	<rect x="262.95" y="52.952" fill="#808284" stroke="#000000" stroke-width="0.5" width="13.845" height="13.846"/>
	<rect x="262.95" y="70.519" fill="#636466" stroke="#000000" stroke-width="0.5" width="13.845" height="13.845"/>
	<rect x="280.07" y="70.519" fill="#FFFFFF" stroke="#000000" stroke-width="0.5" width="13.846" height="13.845"/>
	<rect x="279.921" y="52.952" stroke="#000000" stroke-width="0.5" width="13.845" height="13.846"/>
	<rect x="262.95" y="88.682" fill="#FFFFFF" stroke="#000000" stroke-width="0.5" width="13.845" height="13.846"/>
	<rect x="280.07" y="88.682" fill="#808284" stroke="#000000" stroke-width="0.5" width="13.846" height="13.846"/>
	<rect x="165.521" y="88.682" fill="#BCBEC0" stroke="#000000" stroke-width="0.5" width="13.846" height="13.846"/>
	<rect x="182.641" y="88.532" stroke="#000000" stroke-width="0.5" width="13.846" height="13.845"/>
	<rect x="199.465" y="88.682" fill="#FFFFFF" stroke="#000000" stroke-width="0.5" width="13.845" height="13.846"/>
	<rect x="216.436" y="88.682" fill="#BCBEC0" stroke="#000000" stroke-width="0.5" width="13.845" height="13.846"/>
	<rect x="0.25" y="124.114" fill="#808284" stroke="#000000" stroke-width="0.5" width="13.845" height="13.846"/>
	<rect x="17.222" y="124.114" stroke="#000000" stroke-width="0.5" width="13.845" height="13.846"/>
	<rect x="34.193" y="124.114" fill="#BCBEC0" stroke="#000000" stroke-width="0.5" width="13.846" height="13.846"/>
	<rect x="51.166" y="124.114" stroke="#000000" stroke-width="0.5" width="13.845" height="13.846"/>
	<rect x="68.137" y="124.114" fill="#BCBEC0" stroke="#000000" stroke-width="0.5" width="13.845" height="13.846"/>
	<rect x="84.812" y="124.114" stroke="#000000" stroke-width="0.5" width="13.845" height="13.846"/>
</g>
<g id="text">
	<rect x="28.25" y="151.083" fill="none" width="42.667" height="10.333"/>
	<text transform="matrix(1 0 0 1 28.25 157.5454)" font-family="'Helvetica'" font-size="9">Raw data</text>
	<rect x="143.917" y="114.083" fill="none" width="74.667" height="11"/>
	<text transform="matrix(1 0 0 1 143.9165 120.5449)" font-family="'Helvetica'" font-size="9">Compressed data</text>
	<rect x="262.583" y="115.083" fill="none" width="75.334" height="33"/>
	<text transform="matrix(1 0 0 1 262.5835 121.5449)"><tspan x="0" y="0" font-family="'Helvetica'" font-size="9">Compressed  </tspan><tspan x="0" y="10.8" font-family="'Helvetica'" font-size="9">and  </tspan><tspan x="0" y="21.6" font-family="'Helvetica'" font-size="9">deduplicated data</tspan></text>
	<g>
		<polygon stroke="#000000" stroke-width="0.5" points="248.719,68.502 248.719,60.734 253.204,64.618 257.686,68.502 
			253.204,72.386 248.719,76.271 		"/>
		<rect x="238.812" y="63.75" stroke="#000000" stroke-width="0.5" width="9.624" height="9.106"/>
	</g>
	<g>
		<polygon stroke="#000000" stroke-width="0.5" points="116.969,68.502 116.969,60.734 121.454,64.618 125.936,68.502 
			121.454,72.386 116.969,76.271 		"/>
		<rect x="107.062" y="63.75" stroke="#000000" stroke-width="0.5" width="9.624" height="9.106"/>
	</g>
</g>
</svg>
